<svg width="1000" height="360" viewBox="0 0 1000 360" fill="none" xmlns="http://www.w3.org/2000/svg">
<rect width="1000" height="360" fill="black"/>
<rect x="386" y="131" width="82.8108" height="71" rx="5" fill="#1E2229"/>
<path d="M460.352 171.786H394.469C394.351 171.792 394.233 171.776 394.122 171.737C394.01 171.698 393.908 171.638 393.82 171.56C393.732 171.482 393.661 171.388 393.611 171.283C393.561 171.178 393.533 171.064 393.528 170.948V137.885C393.532 137.768 393.559 137.654 393.609 137.548C393.659 137.442 393.73 137.347 393.817 137.269C393.905 137.19 394.008 137.13 394.12 137.092C394.232 137.053 394.351 137.037 394.469 137.044H460.352C460.469 137.039 460.587 137.056 460.697 137.096C460.808 137.135 460.909 137.196 460.996 137.274C461.082 137.352 461.152 137.446 461.201 137.551C461.25 137.656 461.278 137.77 461.282 137.885V171.051C461.282 171.471 460.824 171.786 460.352 171.786ZM395.4 170.213H459.529V138.62H395.4V170.213Z" fill="white"/>
<path d="M443.792 176.317H411.033C410.915 176.322 410.796 176.308 410.685 176.273C410.573 176.238 410.47 176.184 410.382 176.114C410.294 176.044 410.223 175.959 410.173 175.865C410.123 175.77 410.095 175.668 410.091 175.564C410.091 175.093 410.444 174.811 411.033 174.811H443.792C443.91 174.802 444.029 174.816 444.141 174.85C444.254 174.884 444.357 174.938 444.444 175.009C444.531 175.079 444.601 175.165 444.648 175.261C444.696 175.356 444.721 175.459 444.721 175.564C444.721 175.668 444.696 175.771 444.648 175.867C444.601 175.962 444.531 176.048 444.444 176.119C444.357 176.189 444.254 176.244 444.141 176.278C444.029 176.312 443.91 176.325 443.792 176.317V176.317Z" fill="white"/>
<path d="M452.928 174.808H447.835V176.396H452.102V182.266H402.716V176.409H407.338V174.822H401.882C401.663 174.822 401.453 174.905 401.298 175.054C401.143 175.203 401.056 175.405 401.056 175.615V183.078C401.056 183.289 401.143 183.491 401.298 183.64C401.453 183.789 401.663 183.872 401.882 183.872H452.928C453.147 183.872 453.357 183.789 453.512 183.64C453.667 183.491 453.754 183.289 453.754 183.078V175.61C453.755 175.505 453.734 175.401 453.693 175.304C453.652 175.207 453.592 175.118 453.515 175.044C453.438 174.969 453.347 174.91 453.246 174.87C453.145 174.829 453.037 174.808 452.928 174.808Z" fill="white"/>
<path d="M428.847 180.851H424.458C424.242 180.851 424.034 180.771 423.881 180.63C423.728 180.488 423.641 180.296 423.641 180.096C423.641 179.895 423.728 179.703 423.881 179.562C424.034 179.42 424.242 179.34 424.458 179.34H428.847C429.064 179.34 429.272 179.42 429.425 179.562C429.578 179.703 429.664 179.895 429.664 180.096C429.664 180.296 429.578 180.488 429.425 180.63C429.272 180.771 429.064 180.851 428.847 180.851Z" fill="white"/>
<path d="M420.035 186.894C420.156 186.895 420.275 186.92 420.386 186.967C420.497 187.015 420.597 187.083 420.681 187.17C422.265 188.737 424.413 189.618 426.652 189.618C428.891 189.618 431.038 188.737 432.622 187.17C432.793 187 433.025 186.905 433.267 186.905C433.509 186.905 433.741 187 433.912 187.17C434.084 187.339 434.18 187.569 434.18 187.809C434.18 188.048 434.084 188.278 433.912 188.448C431.986 190.354 429.374 191.425 426.65 191.425C423.927 191.425 421.315 190.354 419.388 188.448C419.261 188.321 419.175 188.16 419.14 187.985C419.106 187.809 419.124 187.628 419.193 187.463C419.262 187.298 419.379 187.157 419.529 187.058C419.678 186.958 419.855 186.905 420.035 186.905V186.894Z" fill="white"/>
<path d="M417.009 191.426C417.128 191.426 417.245 191.446 417.355 191.483C417.464 191.519 417.562 191.573 417.645 191.639C418.829 192.564 420.235 193.298 421.783 193.799C423.331 194.3 424.99 194.558 426.665 194.558C428.341 194.558 430 194.3 431.547 193.799C433.095 193.298 434.502 192.564 435.686 191.639C435.857 191.517 436.081 191.45 436.313 191.454C436.545 191.458 436.766 191.531 436.93 191.66C437.094 191.788 437.188 191.961 437.193 192.142C437.197 192.323 437.111 192.498 436.954 192.631C434.225 194.761 430.524 195.957 426.665 195.957C422.807 195.957 419.106 194.761 416.377 192.631C416.293 192.566 416.227 192.489 416.182 192.404C416.137 192.319 416.114 192.227 416.114 192.135C416.114 192.043 416.137 191.952 416.182 191.867C416.227 191.782 416.293 191.704 416.377 191.639C416.459 191.573 416.557 191.519 416.666 191.483C416.774 191.446 416.891 191.427 417.009 191.426V191.426Z" fill="white"/>
<path d="M427.411 162.723C426.07 162.725 424.76 162.327 423.645 161.58C422.53 160.834 421.661 159.772 421.147 158.53C420.633 157.288 420.499 155.921 420.76 154.602C421.021 153.283 421.666 152.071 422.613 151.12C423.561 150.169 424.769 149.521 426.083 149.258C427.398 148.996 428.76 149.131 429.999 149.645C431.237 150.16 432.295 151.032 433.04 152.15C433.784 153.269 434.181 154.583 434.181 155.928C434.178 157.729 433.464 159.455 432.195 160.729C430.926 162.003 429.206 162.72 427.411 162.723V162.723ZM427.411 150.742C426.388 150.741 425.389 151.045 424.538 151.615C423.688 152.184 423.025 152.994 422.633 153.942C422.241 154.889 422.139 155.932 422.338 156.938C422.537 157.945 423.029 158.869 423.752 159.595C424.475 160.32 425.396 160.815 426.399 161.015C427.401 161.215 428.441 161.113 429.386 160.72C430.33 160.328 431.138 159.663 431.706 158.81C432.274 157.957 432.577 156.954 432.577 155.928C432.577 154.553 432.032 153.235 431.063 152.263C430.095 151.29 428.781 150.743 427.411 150.742V150.742Z" fill="white"/>
<path d="M437.191 171.787H435.632C435.651 170.626 435.453 169.471 435.048 168.392C434.644 167.313 434.041 166.33 433.275 165.501C432.509 164.673 431.596 164.014 430.588 163.565C429.58 163.115 428.498 162.884 427.405 162.884C426.312 162.884 425.23 163.115 424.222 163.565C423.214 164.014 422.301 164.673 421.535 165.501C420.769 166.33 420.166 167.313 419.762 168.392C419.357 169.471 419.159 170.626 419.179 171.787H417.62C417.598 170.407 417.836 169.036 418.318 167.754C418.8 166.472 419.517 165.305 420.428 164.32C421.339 163.336 422.425 162.555 423.623 162.021C424.821 161.487 426.106 161.213 427.405 161.213C428.704 161.213 429.99 161.487 431.188 162.021C432.385 162.555 433.471 163.336 434.382 164.32C435.293 165.305 436.01 166.472 436.493 167.754C436.975 169.036 437.212 170.407 437.191 171.787V171.787Z" fill="white"/>
<path d="M492.464 131H497.94L508.318 160.152H502.657L500.858 154.96H489.546L487.748 160.152H482.074L492.464 131ZM491.387 149.769H499.056L495.219 138.706L491.387 149.769Z" fill="#CB9866"/>
<path d="M504.533 131H510.168L517.084 151.848L523.958 131H529.592L519.801 160.152H514.325L504.533 131Z" fill="#CB9866"/>
<path d="M482.363 171.787H499.668V176.979H487.8V183.686H499.668V188.878H487.8V195.747H499.668V200.939H482.363V171.787Z" fill="white"/>
<path d="M513.619 190.914L507.583 200.943H501.469L510.392 186.205L501.67 171.787H507.741L513.619 181.492L519.493 171.787H525.606L516.814 186.205L525.764 200.939H519.689L513.619 190.914Z" fill="white"/>
<path d="M527.882 171.787H537.874C539.313 171.771 540.741 172.049 542.069 172.605C543.307 173.123 544.433 173.876 545.384 174.823C546.327 175.766 547.074 176.885 547.584 178.117C548.12 179.401 548.392 180.779 548.383 182.171C548.391 183.568 548.119 184.953 547.584 186.244C547.077 187.483 546.33 188.609 545.384 189.557C544.429 190.508 543.296 191.261 542.05 191.775C540.713 192.33 539.278 192.608 537.831 192.593H533.316V200.939H527.882V171.787ZM533.316 176.802V187.547H537.472C538.226 187.555 538.974 187.412 539.672 187.127C540.316 186.86 540.9 186.466 541.39 185.97C541.871 185.474 542.251 184.89 542.509 184.25C543.039 182.902 543.039 181.404 542.509 180.057C542.253 179.422 541.873 178.845 541.39 178.36C540.897 177.872 540.314 177.485 539.672 177.222C538.975 176.935 538.226 176.792 537.472 176.802H533.316Z" fill="white"/>
<path d="M551.1 171.787H568.401V176.979H556.534V183.686H568.401V188.878H556.534V195.747H568.401V200.939H551.1V171.787Z" fill="white"/>
<path d="M571.441 200.939V171.787H580.792C582.367 171.758 583.935 172.007 585.423 172.524C586.695 172.97 587.858 173.679 588.839 174.603C589.776 175.499 590.506 176.589 590.977 177.797C591.486 179.115 591.737 180.519 591.718 181.931C591.726 183.655 591.293 185.352 590.46 186.861C589.622 188.389 588.348 189.633 586.801 190.436L592.636 200.939H586.423L581.753 192.033H576.875V200.939H571.441ZM580.317 187.054C581.274 187.08 582.227 186.937 583.135 186.633C583.829 186.397 584.458 186 584.972 185.476C585.431 184.995 585.773 184.414 585.971 183.779C586.175 183.119 586.276 182.433 586.272 181.742C586.303 181.083 586.192 180.424 585.947 179.811C585.702 179.197 585.329 178.643 584.852 178.186C583.905 177.309 582.394 176.871 580.317 176.871H576.878V187.054H580.317Z" fill="white"/>
<path d="M600.732 176.979H592.94V171.787H614V176.979H606.166V200.939H600.732V176.979Z" fill="white"/>
<path d="M393.56 223.891L394.544 227H395.778L391.982 215.688H390.7L386.903 227H388.122L389.107 223.891H393.56ZM393.232 222.891H389.419L391.325 216.859L393.232 222.891ZM407.91 218.656H406.723L404.613 225.688L402.473 218.656H401.27L404.051 227.109C403.801 227.641 403.457 228.109 403.02 228.484C402.567 228.875 401.988 229.203 401.301 229.453L401.692 230.406C402.567 230.078 403.301 229.641 403.879 229.078C404.457 228.516 404.863 227.875 405.113 227.125L407.91 218.656ZM420.37 218.656H419.277V225.172C418.995 225.516 418.683 225.75 418.37 225.906C418.042 226.062 417.683 226.141 417.292 226.141C416.761 226.141 416.37 226.016 416.105 225.766C415.823 225.516 415.698 225.125 415.698 224.625V218.656H414.605V224.719C414.605 225.5 414.808 226.094 415.23 226.531C415.652 226.969 416.245 227.188 417.011 227.188C418.042 227.188 418.839 226.797 419.386 226V227H420.37V218.656ZM433.674 214.969H432.58V219.391C432.33 219.109 432.049 218.875 431.705 218.719C431.362 218.562 430.987 218.469 430.612 218.469C429.627 218.469 428.862 218.859 428.315 219.609C427.752 220.359 427.487 221.422 427.487 222.766C427.487 224.156 427.737 225.234 428.252 226.016C428.768 226.797 429.487 227.188 430.424 227.188C431.377 227.188 432.127 226.766 432.69 225.922V227H433.674V226.344V214.969ZM431.737 225.906C431.424 226.062 431.096 226.141 430.737 226.141C430.033 226.141 429.502 225.859 429.158 225.297C428.799 224.734 428.627 223.891 428.627 222.766C428.627 221.688 428.783 220.859 429.127 220.297C429.471 219.734 429.955 219.453 430.612 219.453C430.971 219.453 431.315 219.547 431.658 219.703C432.002 219.875 432.299 220.109 432.58 220.391V225.125C432.315 225.484 432.033 225.75 431.737 225.906ZM445.712 219.141C445.212 218.703 444.54 218.469 443.665 218.469C443.259 218.469 442.868 218.531 442.462 218.625C442.056 218.719 441.697 218.859 441.384 219.031L441.665 219.938C442.259 219.625 442.884 219.469 443.54 219.469C444.134 219.469 444.587 219.609 444.9 219.875C445.212 220.156 445.368 220.547 445.368 221.047V221.781C443.728 221.797 442.525 222.031 441.759 222.5C440.993 222.969 440.618 223.703 440.618 224.688C440.618 225.469 440.837 226.062 441.275 226.5C441.712 226.938 442.322 227.156 443.103 227.156C444.15 227.156 444.947 226.766 445.478 225.953V227H446.462V220.953C446.462 220.188 446.212 219.578 445.712 219.141ZM444.447 225.938C444.118 226.094 443.759 226.172 443.353 226.172C442.822 226.172 442.415 226.047 442.134 225.781C441.853 225.516 441.728 225.125 441.728 224.609C441.728 223.953 442.009 223.469 442.603 223.156C443.197 222.844 444.118 222.688 445.368 222.672V225.172C445.087 225.516 444.775 225.781 444.447 225.938ZM467.46 218.656H466.273L464.132 225.812L461.96 218.656H460.757L463.507 227H464.726L467.46 218.656ZM479.842 223.109C479.873 222.906 479.889 222.688 479.889 222.469C479.889 221.219 479.608 220.234 479.061 219.531C478.514 218.828 477.748 218.469 476.78 218.469C475.764 218.469 474.967 218.859 474.405 219.625C473.827 220.406 473.545 221.469 473.545 222.828C473.545 224.203 473.842 225.266 474.467 226.031C475.077 226.797 475.936 227.172 477.045 227.172C477.514 227.172 477.952 227.109 478.389 226.969C478.827 226.828 479.202 226.625 479.514 226.359L479.092 225.5C478.498 225.938 477.827 226.156 477.108 226.156C476.327 226.156 475.733 225.906 475.327 225.391C474.92 224.875 474.686 224.109 474.655 223.109H479.842ZM475.295 220.141C475.639 219.672 476.123 219.438 476.748 219.438C477.373 219.438 477.873 219.688 478.233 220.172C478.592 220.672 478.78 221.344 478.78 222.203H474.67C474.733 221.297 474.936 220.609 475.295 220.141ZM492.115 219.141C491.677 218.703 491.068 218.469 490.318 218.469C489.349 218.469 488.552 218.828 487.896 219.547V218.656H486.912V227H488.005V220.344C488.583 219.797 489.255 219.516 490.021 219.516C491.115 219.516 491.677 220.031 491.677 221.031V227H492.771V220.953C492.771 220.188 492.552 219.578 492.115 219.141ZM501.168 226.438C501.575 226.875 502.168 227.094 502.965 227.094C503.45 227.094 503.84 227.031 504.122 226.906L503.95 225.984C503.715 226.078 503.434 226.125 503.122 226.125C502.622 226.125 502.247 225.984 502.012 225.688C501.762 225.406 501.653 224.953 501.653 224.328V219.562H504.012V218.656H501.653V216.156H500.559V218.656H499.2V219.562H500.559V224.484C500.559 225.344 500.762 226 501.168 226.438ZM515.097 219.141C514.597 218.703 513.925 218.469 513.05 218.469C512.644 218.469 512.253 218.531 511.847 218.625C511.441 218.719 511.082 218.859 510.769 219.031L511.05 219.938C511.644 219.625 512.269 219.469 512.925 219.469C513.519 219.469 513.972 219.609 514.285 219.875C514.597 220.156 514.753 220.547 514.753 221.047V221.781C513.113 221.797 511.91 222.031 511.144 222.5C510.378 222.969 510.003 223.703 510.003 224.688C510.003 225.469 510.222 226.062 510.66 226.5C511.097 226.938 511.707 227.156 512.488 227.156C513.535 227.156 514.332 226.766 514.863 225.953V227H515.847V220.953C515.847 220.188 515.597 219.578 515.097 219.141ZM513.832 225.938C513.503 226.094 513.144 226.172 512.738 226.172C512.207 226.172 511.8 226.047 511.519 225.781C511.238 225.516 511.113 225.125 511.113 224.609C511.113 223.953 511.394 223.469 511.988 223.156C512.582 222.844 513.503 222.688 514.753 222.672V225.172C514.472 225.516 514.16 225.781 513.832 225.938ZM523.823 226.984C524.276 227.109 524.745 227.172 525.245 227.172C526.135 227.172 526.838 226.953 527.338 226.516C527.838 226.078 528.104 225.484 528.104 224.703C528.104 224.078 527.932 223.562 527.604 223.172C527.276 222.797 526.76 222.516 526.042 222.344L524.932 222.078C524.542 221.984 524.26 221.844 524.088 221.625C523.901 221.422 523.823 221.141 523.823 220.797C523.823 219.906 524.354 219.453 525.417 219.453C526.057 219.453 526.729 219.641 527.432 220.016L527.854 219.094C527.51 218.906 527.12 218.766 526.698 218.656C526.276 218.547 525.854 218.484 525.448 218.484C524.588 218.484 523.917 218.703 523.448 219.125C522.963 219.562 522.729 220.141 522.729 220.891C522.729 221.516 522.885 222 523.213 222.375C523.542 222.75 524.073 223.016 524.792 223.172L525.901 223.438C526.276 223.531 526.557 223.688 526.745 223.906C526.917 224.125 527.01 224.406 527.01 224.781C527.01 225.734 526.417 226.203 525.245 226.203C524.432 226.203 523.698 225.984 523.01 225.516L522.62 226.438C522.963 226.672 523.354 226.859 523.823 226.984ZM548.915 214.969H547.821V219.391C547.571 219.109 547.29 218.875 546.946 218.719C546.602 218.562 546.227 218.469 545.852 218.469C544.868 218.469 544.102 218.859 543.555 219.609C542.993 220.359 542.727 221.422 542.727 222.766C542.727 224.156 542.977 225.234 543.493 226.016C544.008 226.797 544.727 227.188 545.665 227.188C546.618 227.188 547.368 226.766 547.93 225.922V227H548.915V226.344V214.969ZM546.977 225.906C546.665 226.062 546.337 226.141 545.977 226.141C545.274 226.141 544.743 225.859 544.399 225.297C544.04 224.734 543.868 223.891 543.868 222.766C543.868 221.688 544.024 220.859 544.368 220.297C544.712 219.734 545.196 219.453 545.852 219.453C546.212 219.453 546.555 219.547 546.899 219.703C547.243 219.875 547.54 220.109 547.821 220.391V225.125C547.555 225.484 547.274 225.75 546.977 225.906ZM556.593 218.656V227H557.687V218.656H556.593ZM556.578 216.938C556.703 217.078 556.89 217.141 557.14 217.141C557.375 217.141 557.562 217.078 557.703 216.922C557.828 216.781 557.906 216.578 557.906 216.312C557.906 216.062 557.828 215.859 557.703 215.719C557.562 215.578 557.375 215.5 557.14 215.5C556.89 215.5 556.703 215.578 556.578 215.719C556.437 215.875 556.375 216.078 556.375 216.328C556.375 216.594 556.437 216.797 556.578 216.938ZM571.069 218.656H570.069V219.516C569.819 219.188 569.522 218.938 569.147 218.75C568.772 218.562 568.382 218.469 567.975 218.469C566.975 218.469 566.21 218.828 565.663 219.547C565.1 220.266 564.835 221.25 564.835 222.531C564.835 223.844 565.085 224.875 565.616 225.609C566.132 226.344 566.85 226.703 567.788 226.703C568.694 226.703 569.413 226.344 569.975 225.594V227.203C569.975 227.938 569.788 228.484 569.413 228.859C569.038 229.234 568.475 229.422 567.757 229.422C567.116 229.422 566.522 229.281 565.96 228.984L565.616 229.953C565.866 230.109 566.194 230.219 566.569 230.297C566.944 230.391 567.35 230.422 567.757 230.422C568.788 230.422 569.6 230.141 570.194 229.578C570.772 229.016 571.069 228.219 571.069 227.203V218.656ZM569.1 225.422C568.788 225.594 568.444 225.672 568.069 225.672C567.382 225.672 566.85 225.406 566.507 224.875C566.147 224.344 565.975 223.562 565.975 222.531C565.975 221.531 566.132 220.766 566.475 220.234C566.819 219.719 567.319 219.453 567.975 219.453C568.35 219.453 568.71 219.547 569.053 219.703C569.397 219.875 569.694 220.109 569.975 220.406V224.656C569.694 225 569.413 225.266 569.1 225.422ZM578.748 218.656V227H579.842V218.656H578.748ZM578.732 216.938C578.857 217.078 579.045 217.141 579.295 217.141C579.529 217.141 579.717 217.078 579.857 216.922C579.982 216.781 580.06 216.578 580.06 216.312C580.06 216.062 579.982 215.859 579.857 215.719C579.717 215.578 579.529 215.5 579.295 215.5C579.045 215.5 578.857 215.578 578.732 215.719C578.592 215.875 578.529 216.078 578.529 216.328C578.529 216.594 578.592 216.797 578.732 216.938ZM588.348 226.438C588.755 226.875 589.348 227.094 590.145 227.094C590.63 227.094 591.02 227.031 591.302 226.906L591.13 225.984C590.895 226.078 590.614 226.125 590.302 226.125C589.802 226.125 589.427 225.984 589.192 225.688C588.942 225.406 588.833 224.953 588.833 224.328V219.562H591.192V218.656H588.833V216.156H587.739V218.656H586.38V219.562H587.739V224.484C587.739 225.344 587.942 226 588.348 226.438ZM602.277 219.141C601.777 218.703 601.105 218.469 600.23 218.469C599.824 218.469 599.433 218.531 599.027 218.625C598.621 218.719 598.262 218.859 597.949 219.031L598.23 219.938C598.824 219.625 599.449 219.469 600.105 219.469C600.699 219.469 601.152 219.609 601.465 219.875C601.777 220.156 601.933 220.547 601.933 221.047V221.781C600.293 221.797 599.09 222.031 598.324 222.5C597.558 222.969 597.183 223.703 597.183 224.688C597.183 225.469 597.402 226.062 597.84 226.5C598.277 226.938 598.887 227.156 599.668 227.156C600.715 227.156 601.512 226.766 602.043 225.953V227H603.027V220.953C603.027 220.188 602.777 219.578 602.277 219.141ZM601.012 225.938C600.683 226.094 600.324 226.172 599.918 226.172C599.387 226.172 598.98 226.047 598.699 225.781C598.418 225.516 598.293 225.125 598.293 224.609C598.293 223.953 598.574 223.469 599.168 223.156C599.762 222.844 600.683 222.688 601.933 222.672V225.172C601.652 225.516 601.34 225.781 601.012 225.938ZM610.972 226.641C611.253 226.938 611.659 227.078 612.19 227.078C612.487 227.078 612.784 227.047 613.097 226.953L612.987 226.047C612.784 226.094 612.597 226.109 612.409 226.109C612.128 226.109 611.94 226.062 611.815 225.938C611.69 225.812 611.628 225.609 611.628 225.328V214.969H610.534V225.375C610.534 225.938 610.675 226.359 610.972 226.641Z" fill="white"/>
</svg>
