<svg width="1000" height="360" viewBox="0 0 1000 360" fill="none" xmlns="http://www.w3.org/2000/svg">
<rect width="1000" height="360" fill="#0088EE"/>
<path d="M593 112H408.987V205.737H593V112Z" fill="#0387EB"/>
<path d="M560.591 153.062C560.591 153.062 543.117 121.629 506.486 121.629C469.855 121.629 450.127 151.084 448.717 161.274C448.717 161.274 464.814 192.426 501.01 192.426C537.206 192.426 551.01 170.903 560.591 153.062Z" fill="white"/>
<path d="M552.283 165.38C552.283 165.38 544.189 129.182 501.01 125.781C501.01 125.781 473.986 122.948 455.577 150.137C455.577 150.137 459.897 176.38 490.142 186.571C520.388 196.761 544.546 176.628 552.283 165.38Z" fill="#0387EB"/>
<path d="M531.853 158.35H520.576C520.576 158.35 518.627 171.021 504.654 171.021C490.681 171.021 488.499 161.379 488.174 157.507C487.888 154.172 492.682 140.436 512.404 146.41L499.444 154.896C498.782 155.821 498.461 156.949 498.538 158.087C498.615 159.224 499.085 160.298 499.867 161.124C501.712 163.226 504.654 162.541 504.654 162.541L528.326 147.82C528.326 147.82 523.35 135.926 503.927 135.926C484.504 135.926 477.183 149.687 477.183 157.534C477.183 165.38 483.1 180.088 504.654 180.029C526.208 179.971 531.989 164.225 531.853 158.35Z" fill="white"/>
<path d="M442.195 233.743H435.14C434.713 236.05 433.469 238.124 431.639 239.582C429.809 241.04 427.515 241.783 425.182 241.674C416.458 241.674 415.081 235.642 414.873 233.22C414.697 231.131 417.692 222.54 430.034 226.261L421.921 231.575C421.503 232.156 421.3 232.866 421.349 233.582C421.398 234.298 421.694 234.973 422.187 235.492C422.574 235.878 423.05 236.161 423.573 236.316C424.096 236.471 424.649 236.493 425.182 236.38L439.993 227.169C439.993 227.169 436.875 219.714 424.727 219.714C412.58 219.714 408 228.311 408 233.22C408 238.129 411.703 247.327 425.182 247.288C438.661 247.249 442.279 237.418 442.195 233.743Z" fill="white"/>
<path d="M515.996 224.212H509.377V245.591H515.996V224.212Z" fill="white"/>
<path d="M515.996 215.007H509.377V219.537H515.996V215.007Z" fill="white"/>
<path d="M521.635 215.007V242.268C521.635 242.268 521.986 245.598 526.182 245.598H537.381V242.268L529.495 242.34C529.495 242.34 527.377 242.836 527.312 240.636C527.247 238.436 527.312 215.007 527.312 215.007H521.635Z" fill="white"/>
<path d="M556.161 224.212C539.863 224.212 540.317 235.877 540.317 235.877C540.317 235.877 540.317 248 556.161 248C572.005 248 571.998 235.877 571.998 235.877C571.998 235.877 572.453 224.212 556.161 224.212ZM565.256 236.047C565.256 236.047 565.964 243.443 556.161 243.443C546.359 243.443 547.067 236.047 547.067 236.047C547.067 236.047 546.079 228.644 556.161 228.644C566.243 228.644 565.243 236.034 565.243 236.034L565.256 236.047Z" fill="white"/>
<path d="M592.721 224.212H583.983C583.983 224.212 576.935 224.473 576.935 230.302V245.598H582.483V231.034C582.483 231.034 582.385 228.298 586.705 228.298H592.721V224.212Z" fill="white"/>
<path d="M473.187 230.942H466.464C466.464 230.942 467.081 227.45 459.968 227.45C452.855 227.45 451.653 229.48 451.653 230.942C451.653 232.404 454.187 233.207 457.5 233.207H463.84C463.84 233.207 473.233 232.829 473.233 239.246C473.233 245.663 465.49 246.845 459.76 246.845C454.031 246.845 446.229 246.329 446.184 240.049H452.381C452.381 240.049 452.056 242.549 459.098 242.601C464.035 242.601 466.471 241.557 466.471 239.337C466.471 237.118 459.689 237.144 459.689 237.144H455.863C455.863 237.144 446.119 238.201 446.184 230.511C446.249 222.821 458.909 223.383 458.909 223.383C458.909 223.383 473.187 222.632 473.187 230.942Z" fill="white"/>
<path d="M504.186 230.74H497.47C497.47 230.74 498.08 227.247 490.974 227.247C483.867 227.247 482.665 229.277 482.665 230.74C482.665 232.202 485.199 233.005 488.512 233.005H494.852C494.852 233.005 504.245 232.626 504.245 239.043C504.245 245.461 496.541 246.642 490.811 246.642C485.082 246.642 477.286 246.12 477.241 239.846H483.354C483.354 239.846 483.029 242.347 490.071 242.392C495.001 242.392 497.444 241.354 497.444 239.128C497.444 236.902 490.662 236.935 490.662 236.935H486.829C486.829 236.935 477.085 237.999 477.157 230.309C477.228 222.619 489.882 223.18 489.882 223.18C489.882 223.18 504.186 222.429 504.186 230.74Z" fill="white"/>
</svg>
