<svg width="1000" height="360" viewBox="0 0 1000 360" fill="none" xmlns="http://www.w3.org/2000/svg">
<rect width="1000" height="360" fill="#F3F3F3"/>
<path d="M348.787 168.479C350.702 168.479 352.378 168.191 353.91 167.569C355.394 166.947 356.638 166.133 357.691 165.128C358.697 164.122 359.463 162.973 360.037 161.633C360.564 160.34 360.851 159 360.851 157.612C360.851 155.936 360.516 154.548 359.941 153.399C359.319 152.25 358.505 151.293 357.548 150.527C356.59 149.761 355.489 149.09 354.292 148.612C353.096 148.133 351.899 147.654 350.75 147.271L348.021 146.362C347.16 146.075 346.394 145.787 345.723 145.404C345.053 145.021 344.574 144.591 344.191 144.112C343.808 143.633 343.617 143.059 343.617 142.341C343.617 141.239 344 140.282 344.862 139.516C345.675 138.75 346.872 138.367 348.5 138.367C351.181 138.367 353.287 139.516 354.819 141.718L360.181 137.649C359.463 136.931 358.697 136.261 357.931 135.638C357.165 135.016 356.303 134.489 355.346 134.011C354.388 133.58 353.383 133.245 352.234 132.958C351.085 132.718 349.84 132.575 348.452 132.575C346.777 132.575 345.245 132.862 343.808 133.341C342.372 133.867 341.176 134.585 340.122 135.495C339.069 136.404 338.303 137.458 337.729 138.654C337.154 139.899 336.867 141.192 336.867 142.58C336.867 144.255 337.154 145.644 337.729 146.745C338.303 147.846 339.069 148.755 340.027 149.521C340.984 150.287 342.037 150.862 343.234 151.293C344.383 151.771 345.58 152.154 346.777 152.537C347.686 152.825 348.596 153.112 349.457 153.399C350.319 153.686 351.133 154.021 351.803 154.404C352.473 154.787 353 155.218 353.431 155.697C353.814 156.223 354.053 156.846 354.053 157.564C354.053 158.809 353.574 159.862 352.665 160.819C351.755 161.777 350.463 162.255 348.739 162.255C347.112 162.255 345.675 161.872 344.383 161.059C343.043 160.245 341.941 159.048 341.08 157.516L335.144 162.207C336.723 164.027 338.59 165.511 340.793 166.707C342.947 167.904 345.628 168.479 348.787 168.479ZM378.139 168.574C380.149 168.574 382.016 168.239 383.788 167.473C385.511 166.707 387.043 165.702 388.383 164.362C389.724 163.021 390.729 161.489 391.495 159.718C392.261 157.947 392.644 156.032 392.644 154.021C392.644 152.011 392.261 150.096 391.495 148.325C390.729 146.553 389.724 145.021 388.383 143.681C387.043 142.341 385.511 141.335 383.788 140.569C382.016 139.803 380.149 139.42 378.139 139.42C376.128 139.42 374.213 139.803 372.442 140.569C370.671 141.335 369.139 142.341 367.846 143.681C366.506 145.021 365.501 146.553 364.735 148.325C363.969 150.096 363.634 152.011 363.634 154.021C363.634 156.032 363.969 157.947 364.735 159.718C365.501 161.489 366.506 163.021 367.846 164.362C369.139 165.702 370.671 166.707 372.442 167.473C374.213 168.239 376.128 168.574 378.139 168.574ZM378.139 162.495C376.99 162.495 375.889 162.303 374.884 161.824C373.878 161.394 373.016 160.771 372.298 160.005C371.58 159.239 371.006 158.378 370.623 157.325C370.192 156.271 370.001 155.17 370.001 154.021C370.001 152.872 370.192 151.771 370.623 150.718C371.006 149.665 371.58 148.755 372.298 147.989C373.016 147.223 373.878 146.649 374.884 146.17C375.889 145.739 376.99 145.5 378.139 145.5C379.288 145.5 380.341 145.739 381.346 146.17C382.304 146.649 383.165 147.223 383.931 147.989C384.649 148.755 385.224 149.665 385.655 150.718C386.038 151.771 386.277 152.872 386.277 154.021C386.277 155.17 386.038 156.271 385.655 157.325C385.224 158.378 384.649 159.239 383.931 160.005C383.165 160.771 382.304 161.394 381.346 161.824C380.341 162.303 379.288 162.495 378.139 162.495ZM395.492 132.575V168H402.002V132.575H395.492ZM404.294 139.995L414.969 168H421.48L432.012 139.995H425.358L418.273 159.718L411.044 139.995H404.294ZM446.12 168.574C449.232 168.574 451.865 167.904 454.067 166.516C456.269 165.128 457.945 163.309 459.189 161.011L453.876 157.947C453.205 159.479 452.2 160.676 450.86 161.537C449.519 162.447 447.939 162.878 446.12 162.878C443.822 162.878 441.908 162.303 440.424 161.059C438.892 159.862 437.934 158.282 437.503 156.271H460.29V153.83C460.29 151.771 459.907 149.856 459.189 148.085C458.471 146.362 457.466 144.83 456.221 143.537C454.929 142.245 453.397 141.239 451.626 140.521C449.854 139.803 447.939 139.42 445.881 139.42C443.822 139.42 441.908 139.803 440.136 140.569C438.365 141.335 436.833 142.388 435.541 143.681C434.2 145.021 433.195 146.553 432.429 148.325C431.663 150.144 431.328 152.059 431.328 154.069C431.328 156.08 431.663 157.995 432.381 159.766C433.099 161.537 434.104 163.069 435.397 164.362C436.689 165.702 438.269 166.707 440.088 167.473C441.908 168.239 443.918 168.574 446.12 168.574ZM445.881 145.117C447.892 145.117 449.567 145.644 450.955 146.601C452.296 147.559 453.253 148.995 453.732 150.862H437.838C438.413 149.138 439.37 147.75 440.806 146.697C442.243 145.644 443.918 145.117 445.881 145.117Z" fill="black"/>
<path d="M335.814 199.433V205.226H340.553V227.438H347.112V205.226H352.856V199.433H347.112C347.112 198.428 347.16 197.566 347.255 196.896C347.351 196.226 347.638 195.699 348.021 195.268C348.404 194.885 349.027 194.598 349.793 194.407C350.558 194.263 351.564 194.167 352.856 194.167V188.183H352.282C350.128 188.183 348.308 188.423 346.824 188.806C345.34 189.236 344.144 189.907 343.234 190.768C342.277 191.678 341.606 192.827 341.176 194.263C340.745 195.699 340.553 197.375 340.553 199.385V199.433H335.814ZM367.714 228.013C369.724 228.013 371.591 227.678 373.362 226.912C375.086 226.146 376.618 225.141 377.958 223.8C379.299 222.46 380.304 220.928 381.07 219.157C381.836 217.385 382.219 215.47 382.219 213.46C382.219 211.449 381.836 209.534 381.07 207.763C380.304 205.992 379.299 204.46 377.958 203.119C376.618 201.779 375.086 200.774 373.362 200.008C371.591 199.242 369.724 198.859 367.714 198.859C365.703 198.859 363.788 199.242 362.017 200.008C360.245 200.774 358.714 201.779 357.421 203.119C356.081 204.46 355.075 205.992 354.309 207.763C353.543 209.534 353.208 211.449 353.208 213.46C353.208 215.47 353.543 217.385 354.309 219.157C355.075 220.928 356.081 222.46 357.421 223.8C358.714 225.141 360.245 226.146 362.017 226.912C363.788 227.678 365.703 228.013 367.714 228.013ZM367.714 221.933C366.565 221.933 365.464 221.742 364.458 221.263C363.453 220.832 362.591 220.21 361.873 219.444C361.155 218.678 360.581 217.816 360.198 216.763C359.767 215.71 359.575 214.609 359.575 213.46C359.575 212.311 359.767 211.21 360.198 210.157C360.581 209.103 361.155 208.194 361.873 207.428C362.591 206.662 363.453 206.087 364.458 205.609C365.464 205.178 366.565 204.939 367.714 204.939C368.862 204.939 369.916 205.178 370.921 205.609C371.878 206.087 372.74 206.662 373.506 207.428C374.224 208.194 374.799 209.103 375.229 210.157C375.612 211.21 375.852 212.311 375.852 213.46C375.852 214.609 375.612 215.71 375.229 216.763C374.799 217.816 374.224 218.678 373.506 219.444C372.74 220.21 371.878 220.832 370.921 221.263C369.916 221.742 368.862 221.933 367.714 221.933ZM385.066 199.433V227.438H391.529V212.502C391.529 210.109 392.008 208.337 392.965 207.284C393.923 206.231 395.359 205.657 397.274 205.657C398.183 205.657 398.949 205.8 399.524 205.992C400.098 206.183 400.673 206.47 401.151 206.758L403.593 200.63C402.923 200.295 402.205 200.008 401.391 199.768C400.577 199.577 399.667 199.433 398.662 199.433C395.167 199.433 392.774 200.822 391.481 203.598V199.433H385.066ZM426.13 198.715V227.438H432.641V198.715H442.024V192.492H416.795V198.715H426.13ZM452.986 228.013C454.996 228.013 456.863 227.678 458.635 226.912C460.358 226.146 461.89 225.141 463.23 223.8C464.571 222.46 465.576 220.928 466.342 219.157C467.108 217.385 467.491 215.47 467.491 213.46C467.491 211.449 467.108 209.534 466.342 207.763C465.576 205.992 464.571 204.46 463.23 203.119C461.89 201.779 460.358 200.774 458.635 200.008C456.863 199.242 454.996 198.859 452.986 198.859C450.975 198.859 449.06 199.242 447.289 200.008C445.518 200.774 443.986 201.779 442.693 203.119C441.353 204.46 440.348 205.992 439.582 207.763C438.816 209.534 438.481 211.449 438.481 213.46C438.481 215.47 438.816 217.385 439.582 219.157C440.348 220.928 441.353 222.46 442.693 223.8C443.986 225.141 445.518 226.146 447.289 226.912C449.06 227.678 450.975 228.013 452.986 228.013ZM452.986 221.933C451.837 221.933 450.736 221.742 449.731 221.263C448.725 220.832 447.864 220.21 447.145 219.444C446.427 218.678 445.853 217.816 445.47 216.763C445.039 215.71 444.848 214.609 444.848 213.46C444.848 212.311 445.039 211.21 445.47 210.157C445.853 209.103 446.427 208.194 447.145 207.428C447.864 206.662 448.725 206.087 449.731 205.609C450.736 205.178 451.837 204.939 452.986 204.939C454.135 204.939 455.188 205.178 456.193 205.609C457.151 206.087 458.012 206.662 458.778 207.428C459.496 208.194 460.071 209.103 460.502 210.157C460.885 211.21 461.124 212.311 461.124 213.46C461.124 214.609 460.885 215.71 460.502 216.763C460.071 217.816 459.496 218.678 458.778 219.444C458.012 220.21 457.151 220.832 456.193 221.263C455.188 221.742 454.135 221.933 452.986 221.933ZM470.339 199.433V227.438H476.802V211.928C476.802 209.439 477.376 207.572 478.573 206.327C479.77 205.082 481.301 204.46 483.121 204.46C485.036 204.46 486.52 205.034 487.525 206.183C488.482 207.332 489.009 208.912 489.009 210.923V227.438H495.567V211.784C495.567 209.343 496.142 207.524 497.339 206.279C498.488 205.082 499.972 204.46 501.743 204.46C503.754 204.46 505.238 205.082 506.291 206.279C507.296 207.476 507.823 209.103 507.823 211.114V227.438H514.429V210.587C514.429 206.949 513.472 204.125 511.557 202.018C509.642 199.912 506.769 198.859 503.035 198.859C501.025 198.859 499.206 199.338 497.626 200.199C496.046 201.061 494.801 202.258 493.844 203.694C492.982 202.162 491.833 201.013 490.301 200.151C488.77 199.29 486.95 198.859 484.748 198.859C483.025 198.859 481.445 199.242 480.105 199.912C478.764 200.582 477.615 201.54 476.754 202.689V199.433H470.339ZM531.713 228.013C533.724 228.013 535.591 227.678 537.362 226.912C539.085 226.146 540.617 225.141 541.958 223.8C543.298 222.46 544.304 220.928 545.069 219.157C545.835 217.385 546.218 215.47 546.218 213.46C546.218 211.449 545.835 209.534 545.069 207.763C544.304 205.992 543.298 204.46 541.958 203.119C540.617 201.779 539.085 200.774 537.362 200.008C535.591 199.242 533.724 198.859 531.713 198.859C529.703 198.859 527.788 199.242 526.016 200.008C524.245 200.774 522.713 201.779 521.421 203.119C520.08 204.46 519.075 205.992 518.309 207.763C517.543 209.534 517.208 211.449 517.208 213.46C517.208 215.47 517.543 217.385 518.309 219.157C519.075 220.928 520.08 222.46 521.421 223.8C522.713 225.141 524.245 226.146 526.016 226.912C527.788 227.678 529.703 228.013 531.713 228.013ZM531.713 221.933C530.564 221.933 529.463 221.742 528.458 221.263C527.453 220.832 526.591 220.21 525.873 219.444C525.155 218.678 524.58 217.816 524.197 216.763C523.766 215.71 523.575 214.609 523.575 213.46C523.575 212.311 523.766 211.21 524.197 210.157C524.58 209.103 525.155 208.194 525.873 207.428C526.591 206.662 527.453 206.087 528.458 205.609C529.463 205.178 530.564 204.939 531.713 204.939C532.862 204.939 533.915 205.178 534.921 205.609C535.878 206.087 536.74 206.662 537.506 207.428C538.224 208.194 538.798 209.103 539.229 210.157C539.612 211.21 539.851 212.311 539.851 213.46C539.851 214.609 539.612 215.71 539.229 216.763C538.798 217.816 538.224 218.678 537.506 219.444C536.74 220.21 535.878 220.832 534.921 221.263C533.915 221.742 532.862 221.933 531.713 221.933ZM549.066 199.433V227.438H555.529V212.502C555.529 210.109 556.008 208.337 556.965 207.284C557.922 206.231 559.359 205.657 561.273 205.657C562.183 205.657 562.949 205.8 563.523 205.992C564.098 206.183 564.672 206.47 565.151 206.758L567.593 200.63C566.922 200.295 566.204 200.008 565.39 199.768C564.577 199.577 563.667 199.433 562.662 199.433C559.167 199.433 556.773 200.822 555.481 203.598V199.433H549.066ZM569.683 199.433V227.438H576.146V212.502C576.146 210.109 576.624 208.337 577.582 207.284C578.539 206.231 579.975 205.657 581.89 205.657C582.8 205.657 583.566 205.8 584.14 205.992C584.715 206.183 585.289 206.47 585.768 206.758L588.209 200.63C587.539 200.295 586.821 200.008 586.007 199.768C585.193 199.577 584.284 199.433 583.279 199.433C579.784 199.433 577.39 200.822 576.098 203.598V199.433H569.683ZM602.96 228.013C604.971 228.013 606.838 227.678 608.609 226.912C610.333 226.146 611.865 225.141 613.205 223.8C614.545 222.46 615.551 220.928 616.317 219.157C617.083 217.385 617.466 215.47 617.466 213.46C617.466 211.449 617.083 209.534 616.317 207.763C615.551 205.992 614.545 204.46 613.205 203.119C611.865 201.779 610.333 200.774 608.609 200.008C606.838 199.242 604.971 198.859 602.96 198.859C600.95 198.859 599.035 199.242 597.264 200.008C595.492 200.774 593.96 201.779 592.668 203.119C591.327 204.46 590.322 205.992 589.556 207.763C588.79 209.534 588.455 211.449 588.455 213.46C588.455 215.47 588.79 217.385 589.556 219.157C590.322 220.928 591.327 222.46 592.668 223.8C593.96 225.141 595.492 226.146 597.264 226.912C599.035 227.678 600.95 228.013 602.96 228.013ZM602.96 221.933C601.811 221.933 600.71 221.742 599.705 221.263C598.7 220.832 597.838 220.21 597.12 219.444C596.402 218.678 595.827 217.816 595.444 216.763C595.014 215.71 594.822 214.609 594.822 213.46C594.822 212.311 595.014 211.21 595.444 210.157C595.827 209.103 596.402 208.194 597.12 207.428C597.838 206.662 598.7 206.087 599.705 205.609C600.71 205.178 601.811 204.939 602.96 204.939C604.109 204.939 605.163 205.178 606.168 205.609C607.125 206.087 607.987 206.662 608.753 207.428C609.471 208.194 610.045 209.103 610.476 210.157C610.859 211.21 611.099 212.311 611.099 213.46C611.099 214.609 610.859 215.71 610.476 216.763C610.045 217.816 609.471 218.678 608.753 219.444C607.987 220.21 607.125 220.832 606.168 221.263C605.163 221.742 604.109 221.933 602.96 221.933ZM617.157 199.433L626.493 227.438H632.86L640.136 208.05L647.221 227.438H653.445L663.258 199.433H656.7L650.285 218.774L643.391 199.433H636.977L629.939 218.726L623.764 199.433H617.157Z" fill="black"/>
</svg>
