<svg width="1000" height="360" viewBox="0 0 1000 360" fill="none" xmlns="http://www.w3.org/2000/svg">
<rect width="1000" height="360" fill="#222222"/>
<path d="M415.948 185.97C416.237 186.651 416.142 187.524 415.996 188.059C415.754 188.981 415.127 189.953 413.29 189.953C411.552 189.953 410.49 188.933 410.49 187.427V184.708H403V186.846C403 193.106 407.879 195 413.146 195C418.171 195 422.326 193.253 423.002 188.593C423.339 186.165 423.099 184.612 422.953 183.981C421.796 178.106 411.212 176.359 410.391 173.106C410.247 172.524 410.296 171.943 410.343 171.651C410.537 170.777 411.164 169.757 412.903 169.757C414.546 169.757 415.513 170.777 415.513 172.281V174.03H422.471V172.039C422.471 165.922 417.012 165 413.049 165C408.073 165 404.062 166.65 403.289 171.214C403.097 172.476 403.046 173.593 403.337 175.001C404.594 180.679 414.499 182.331 415.948 185.97ZM506.539 185.923C506.828 186.602 506.731 187.476 506.588 187.961C506.345 188.884 505.718 189.806 503.881 189.806C502.142 189.806 501.128 188.786 501.128 187.281V184.612H493.736V186.748C493.736 192.913 498.567 194.805 503.784 194.805C508.762 194.805 512.869 193.106 513.546 188.447C513.882 186.067 513.639 184.466 513.496 183.883C512.337 178.057 501.852 176.359 501.079 173.108C500.934 172.524 500.982 171.941 501.031 171.651C501.225 170.777 501.804 169.806 503.543 169.806C505.137 169.806 506.104 170.826 506.104 172.329V174.03H513.012V172.087C513.012 166.069 507.601 165.098 503.689 165.098C498.808 165.098 494.798 166.748 494.026 171.263C493.832 172.476 493.783 173.593 494.074 174.999C495.33 180.681 505.137 182.331 506.539 185.923ZM564.372 188.398L563.986 165.874H570.894V193.543H560.942L553.937 170.291L554.323 193.543H547.461V165.874H557.802L564.372 188.398ZM439.089 167.912L435.226 193.836H427.688L432.81 165.874H445.227L450.348 193.836H442.86L439.089 167.912ZM479.773 167.912L474.94 193.837H467.887L463.104 167.912L462.91 193.836H455.954L456.532 165.874H467.887L471.414 187.717L474.942 165.874H486.294L486.924 193.836H479.965L479.773 167.912ZM529.923 189.662C531.855 189.662 532.484 188.301 532.581 187.622C532.63 187.329 532.63 186.893 532.63 186.553V165.825H539.684V185.925C539.684 186.458 539.635 187.477 539.635 187.768C539.152 193.012 535.043 194.711 529.923 194.711C524.801 194.711 520.695 193.012 520.212 187.768C520.163 187.477 520.115 186.458 520.163 185.925V165.825H527.219V186.553C527.219 186.893 527.219 187.329 527.265 187.622C527.411 188.349 527.991 189.66 529.923 189.66V189.662ZM588.094 189.369C590.123 189.369 590.801 188.057 590.945 187.329C590.993 186.992 591.042 186.602 590.993 186.261V182.184H588.143V178.106H597.998V185.631C597.998 186.165 597.998 186.553 597.903 187.476C597.42 192.574 593.022 194.368 588.094 194.368C583.167 194.368 578.769 192.574 578.288 187.476C578.191 186.553 578.191 186.165 578.191 185.631V173.835C578.191 173.349 578.239 172.476 578.288 171.99C578.915 166.747 583.118 165.098 588.094 165.098C593.022 165.098 597.371 166.747 597.855 171.99C597.952 172.864 597.903 173.835 597.903 173.835V174.758H590.848V173.203C590.848 173.203 590.848 172.524 590.752 172.134C590.607 171.504 590.077 170.096 587.951 170.096C585.92 170.096 585.341 171.456 585.196 172.136C585.099 172.524 585.099 173.01 585.099 173.447V186.263C585.099 186.602 585.099 186.99 585.147 187.331C585.341 188.108 586.066 189.369 588.096 189.369H588.094Z" fill="white"/>
</svg>
